<?xml version="1.0" encoding="UTF-8"?>
<svg xmlns="http://www.w3.org/2000/svg" xmlns:xlink="http://www.w3.org/1999/xlink" width="285pt" height="94pt" viewBox="0 0 285 94" version="1.1">
<g id="surface1">
<path style=" stroke:none;fill-rule:evenodd;fill:rgb(0%,0%,41.967773%);fill-opacity:1;" d="M 24.898438 63.671875 L 10.117188 63.671875 C 5.683594 63.671875 2.546875 67.273438 2.425781 70.757813 C 2.25 75.71875 9.453125 78.550781 14.269531 79.5625 C 18.210938 80.394531 23.082031 82.050781 22.871094 85.535156 C 22.671875 88.808594 17.441406 90.367188 13.15625 90.394531 C 8.964844 90.421875 4.988281 87.425781 0.90625 90.800781 C 5.089844 92.117188 8.828125 93.117188 13.054688 93.230469 C 19.554688 93.402344 27.621094 90.378906 27.730469 84.726563 C 27.84375 78.933594 19.964844 76.929688 15.988281 76.121094 C 12.371094 75.390625 6.785156 73.601563 6.980469 70.351563 C 7.183594 66.984375 9.890625 66.15625 11.804688 66.160156 L 21.859375 66.203125 C 23.34375 66.207031 24.324219 64.917969 24.898438 63.671875 Z M 32.183594 63.671875 C 34.480469 63.671875 36.640625 65.636719 36.640625 67.621094 L 36.640625 76.730469 L 52.054688 76.730469 L 52.054688 67.621094 C 52.054688 65.636719 54.210938 63.671875 56.507813 63.671875 L 56.507813 92.117188 C 54.3125 92.117188 52.054688 89.53125 52.054688 87.359375 L 52.054688 79.363281 L 36.640625 79.363281 L 36.640625 87.359375 C 36.640625 89.53125 34.378906 92.117188 32.183594 92.117188 Z M 91.304688 63.671875 C 93.597656 63.671875 95.757813 65.636719 95.757813 67.621094 L 95.757813 76.730469 L 111.171875 76.730469 L 111.171875 67.621094 C 111.171875 65.636719 113.332031 63.671875 115.625 63.671875 L 115.625 92.117188 C 113.433594 92.117188 111.171875 89.53125 111.171875 87.359375 L 111.171875 79.363281 L 95.757813 79.363281 L 95.757813 87.359375 C 95.757813 89.53125 93.496094 92.117188 91.304688 92.117188 Z M 69.335938 63.671875 L 78.546875 63.671875 C 82.113281 63.671875 86.371094 67.394531 86.371094 70.960938 L 86.371094 92.117188 C 84.175781 92.117188 81.917969 89.53125 81.917969 87.359375 L 81.917969 79.363281 L 66.503906 79.363281 L 66.503906 87.359375 C 66.503906 89.53125 64.242188 92.117188 62.046875 92.117188 L 62.046875 71.464844 C 62.046875 67.910156 65.777344 63.671875 69.335938 63.671875 Z M 66.503906 71.464844 L 66.503906 76.730469 L 81.917969 76.730469 L 81.917969 71.363281 C 81.917969 68.972656 79.320313 66.203125 76.929688 66.203125 L 71.15625 66.203125 C 68.816406 66.203125 66.503906 69.125 66.503906 71.464844 Z M 228.660156 63.671875 L 237.871094 63.671875 C 241.433594 63.671875 245.691406 67.394531 245.691406 70.960938 L 245.691406 92.117188 C 243.5 92.117188 241.238281 89.53125 241.238281 87.359375 L 241.238281 79.363281 L 225.824219 79.363281 L 225.824219 87.359375 C 225.824219 89.53125 223.566406 92.117188 221.371094 92.117188 L 221.371094 71.464844 C 221.371094 67.910156 225.101563 63.671875 228.660156 63.671875 Z M 225.824219 71.464844 L 225.824219 76.730469 L 241.238281 76.730469 L 241.238281 71.363281 C 241.238281 68.972656 238.644531 66.203125 236.25 66.203125 L 230.480469 66.203125 C 228.140625 66.203125 225.824219 69.125 225.824219 71.464844 Z M 186.664063 66.203125 L 197.976563 87.464844 L 197.976563 67.621094 C 197.976563 65.636719 200.039063 63.671875 202.230469 63.671875 L 202.230469 87.257813 C 202.230469 89.789063 200.757813 92.117188 198.808594 92.117188 C 196.464844 92.117188 194.832031 90.175781 193.6875 88.007813 L 183.929688 69.589844 L 183.929688 87.359375 C 183.929688 89.53125 181.769531 92.117188 179.675781 92.117188 L 179.675781 67.519531 C 179.675781 65.351563 180.679688 63.671875 183.117188 63.671875 C 184.542969 63.671875 185.574219 64.152344 186.664063 66.203125 Z M 119.242188 77.742188 C 119.175781 88.304688 124.910156 92.117188 134.324219 92.117188 L 146.84375 92.117188 C 146.84375 90.324219 144.257813 88.472656 142.085938 88.472656 L 135.753906 88.472656 C 131.394531 88.472656 125.125 88.332031 124.457031 79.867188 L 145.660156 79.867188 L 145.660156 76.628906 L 124.46875 76.628906 C 125.039063 70.160156 129.105469 67.316406 133.414063 67.316406 L 142.085938 67.316406 C 144.257813 67.316406 146.84375 65.464844 146.84375 63.671875 L 133.414063 63.671875 C 124.75 63.90625 119.296875 68.570313 119.242188 77.742188 Z M 148.894531 77.742188 C 148.832031 88.304688 154.566406 92.117188 163.980469 92.117188 L 176.5 92.117188 C 176.5 90.324219 173.914063 88.472656 171.742188 88.472656 L 165.40625 88.472656 C 161.050781 88.472656 154.777344 88.332031 154.109375 79.867188 L 175.316406 79.867188 L 175.316406 76.628906 L 154.121094 76.628906 C 154.695313 70.160156 158.761719 67.316406 163.070313 67.316406 L 171.742188 67.316406 C 173.914063 67.316406 176.5 65.464844 176.5 63.671875 L 163.066406 63.671875 C 154.40625 63.90625 148.953125 68.570313 148.894531 77.742188 Z M 250.1875 63.671875 L 255.371094 63.671875 L 255.371094 92.117188 L 250.1875 92.117188 Z M 259.574219 63.671875 L 274.367188 63.671875 C 279.28125 63.671875 283.96875 66.089844 284.128906 71.332031 C 284.273438 76.152344 280.679688 78.402344 278.132813 79.6875 C 283.605469 81.035156 284.308594 85.957031 284.371094 92.117188 C 280.855469 91.769531 279.289063 89.230469 278.976563 85.277344 C 278.792969 82.925781 275.679688 80.59375 273.765625 79.792969 C 281.304688 76.53125 282.0625 66.203125 273.691406 66.203125 L 264.753906 66.203125 L 264.753906 87.871094 C 264.753906 90.105469 261.902344 92.117188 259.574219 92.117188 L 259.574219 63.671875 "/>
<path style=" stroke:none;fill-rule:evenodd;fill:rgb(89.451599%,73.242188%,4.315186%);fill-opacity:1;" d="M 217.058594 41.820313 C 215.605469 35.296875 229.164063 35.53125 235.035156 35.335938 C 249.039063 34.859375 253.871094 28.105469 255.96875 18.390625 C 251.089844 23.507813 243.019531 26.296875 232.773438 28.953125 C 227.886719 30.21875 218.082031 30.195313 215.328125 33.472656 C 214.101563 34.933594 213.742188 37.265625 217.058594 41.820313 Z M 189.8125 41.277344 C 189.074219 40.109375 189.984375 37.484375 191.785156 36.636719 C 193.578125 35.789063 195.792969 35.441406 197.554688 35.402344 C 199.84375 35.351563 202.160156 36.460938 204.074219 37.625 C 207.214844 39.53125 210.019531 41.726563 213.265625 43.550781 C 214.125 44.035156 214.875 43.960938 215.230469 43.585938 C 215.617188 43.179688 215.46875 42.5 214.652344 41.675781 C 212.050781 39.039063 207.421875 35.769531 207.394531 31.957031 C 207.371094 28.101563 215.214844 22.351563 223.949219 19.742188 C 229.535156 18.074219 235.011719 15.828125 240.304688 13.9375 C 252.714844 9.507813 260.636719 4.800781 264.230469 0.871094 C 262.878906 6.523438 257.128906 14.253906 252.960938 17.324219 C 248.6875 20.46875 243.738281 23.207031 240.65625 24.628906 C 234.6875 27.382813 226.585938 28.433594 220.472656 30.054688 C 217.089844 30.953125 214.019531 32.191406 213.476563 33.96875 C 212.585938 36.886719 214.808594 39.542969 216.203125 41.96875 C 216.78125 42.972656 216.875 43.882813 216.289063 44.363281 C 215.769531 44.789063 214.851563 44.898438 214.226563 44.636719 C 211.554688 43.523438 209.320313 41.863281 206.960938 41.574219 C 204.199219 41.234375 203.550781 44.179688 203.753906 45.921875 C 204.042969 48.402344 208.507813 56.710938 217.566406 58.414063 C 217.09375 58.8125 216.371094 58.789063 215.484375 58.722656 C 210.828125 58.386719 205.480469 54.761719 201.597656 50.746094 C 197.746094 46.765625 194.832031 40.226563 191.84375 40.242188 C 190.703125 40.25 190.242188 40.605469 189.8125 41.277344 Z M 197.933594 36.742188 C 197.117188 37.648438 196.023438 38.464844 194.886719 38.703125 C 194.152344 38.859375 193.4375 38.519531 192.875 37.949219 C 194.203125 36.515625 195.320313 37.261719 197.933594 36.742188 "/>
</g>
</svg>
